<?xml version="1.0" encoding="UTF-8"?>
<svg width="200" height="150" xmlns="http://www.w3.org/2000/svg">
  <!-- Simple mind map template -->
  <ellipse cx="100" cy="75" rx="40" ry="25" fill="#fff" stroke="#000" stroke-width="2"/>
  <text x="100" y="80" font-family="Arial" font-size="12" text-anchor="middle">Main Idea</text>
  
  <line x1="100" y1="50" x2="50" y2="25" stroke="#000" stroke-width="2"/>
  <ellipse cx="40" cy="20" rx="30" ry="15" fill="#fff" stroke="#000" stroke-width="2"/>
  <text x="40" y="24" font-family="Arial" font-size="10" text-anchor="middle">Topic 1</text>
  
  <line x1="100" y1="75" x2="40" y2="75" stroke="#000" stroke-width="2"/>
  <ellipse cx="25" cy="75" rx="25" ry="15" fill="#fff" stroke="#000" stroke-width="2"/>
  <text x="25" y="79" font-family="Arial" font-size="10" text-anchor="middle">Topic 2</text>
  
  <line x1="100" y1="100" x2="50" y2="125" stroke="#000" stroke-width="2"/>
  <ellipse cx="40" cy="130" rx="30" ry="15" fill="#fff" stroke="#000" stroke-width="2"/>
  <text x="40" y="134" font-family="Arial" font-size="10" text-anchor="middle">Topic 3</text>
  
  <line x1="100" y1="50" x2="150" y2="25" stroke="#000" stroke-width="2"/>
  <ellipse cx="160" cy="20" rx="30" ry="15" fill="#fff" stroke="#000" stroke-width="2"/>
  <text x="160" y="24" font-family="Arial" font-size="10" text-anchor="middle">Topic 4</text>
  
  <line x1="100" y1="75" x2="160" y2="75" stroke="#000" stroke-width="2"/>
  <ellipse cx="175" cy="75" rx="25" ry="15" fill="#fff" stroke="#000" stroke-width="2"/>
  <text x="175" y="79" font-family="Arial" font-size="10" text-anchor="middle">Topic 5</text>
  
  <line x1="100" y1="100" x2="150" y2="125" stroke="#000" stroke-width="2"/>
  <ellipse cx="160" cy="130" rx="30" ry="15" fill="#fff" stroke="#000" stroke-width="2"/>
  <text x="160" y="134" font-family="Arial" font-size="10" text-anchor="middle">Topic 6</text>
</svg>
